<?xml version="1.0" encoding="UTF-8" standalone="no"?>
<!-- Created with Inkscape (http://www.inkscape.org/) -->

<svg
   width="1128.131"
   height="488.30392"
   viewBox="0 0 298.48465 129.19709"
   version="1.1"
   id="svg13691"
   inkscape:version="1.2.2 (b0a8486541, 2022-12-01)"
   sodipodi:docname="diagram.svg"
   xmlns:inkscape="http://www.inkscape.org/namespaces/inkscape"
   xmlns:sodipodi="http://sodipodi.sourceforge.net/DTD/sodipodi-0.dtd"
   xmlns="http://www.w3.org/2000/svg"
   xmlns:svg="http://www.w3.org/2000/svg">
  <sodipodi:namedview
     id="namedview13693"
     pagecolor="#ffffff"
     bordercolor="#000000"
     borderopacity="0.25"
     inkscape:showpageshadow="2"
     inkscape:pageopacity="0.0"
     inkscape:pagecheckerboard="0"
     inkscape:deskcolor="#d1d1d1"
     inkscape:document-units="mm"
     showgrid="false"
     inkscape:zoom="1.3932941"
     inkscape:cx="705.16342"
     inkscape:cy="409.82017"
     inkscape:window-width="1920"
     inkscape:window-height="979"
     inkscape:window-x="0"
     inkscape:window-y="0"
     inkscape:window-maximized="1"
     inkscape:current-layer="layer1" />
  <defs
     id="defs13688" />
  <g
     inkscape:label="Layer 1"
     inkscape:groupmode="layer"
     id="layer1"
     transform="translate(9.0551987,-77.674232)">
    <rect
       style="fill:#ffffff;stroke:none;stroke-width:0.79375;stroke-linecap:round"
       id="rect14216"
       width="298.48465"
       height="129.19708"
       x="-9.0551987"
       y="77.674232"
       ry="6.0348907" />
    <path
       style="fill:#ffffff;stroke:#b3b3b3;stroke-width:0.79375;stroke-linecap:round"
       d="m 122.92691,103.41016 h 5.2e-4 c 3.77912,0.0404 7.52567,2.43895 8.65321,6.73086 0.20257,0.771 0.13382,0.70751 1.26918,1.17874 6.67606,2.77087 6.03143,12.63193 -0.96532,14.76499 l -0.62942,0.19224 -9.35757,0.0165 c -7.50302,0.0138 -9.45765,-0.004 -9.86141,-0.0935 -5.3618,-1.1826 -7.26965,-8.12867 -3.26233,-11.87732 l 0.57206,-0.53485 0.008,-1.05575 c 0.0202,-2.85167 1.94405,-4.78733 4.80488,-4.83484 0.56718,-0.009 1.0432,-0.0316 1.0573,-0.0491 0.0142,-0.0175 0.19042,-0.2772 0.39171,-0.57723 1.78651,-2.66296 4.56123,-3.88991 7.31893,-3.86075 z"
       id="path12319" />
    <g
       id="g14579"
       transform="translate(0,-4.7923206)">
      <g
         id="g4804"
         style="fill:#818792;fill-opacity:1"
         transform="matrix(0.62955775,0,0,0.62955775,-38.11346,86.206848)">
        <path
           id="path4776"
           style="fill:#818792;fill-opacity:1;stroke-width:0.264583"
           d="m 143.51062,86.108439 c -1.82493,-0.0041 -3.57738,1.24489 -4.08657,3.320211 -0.68725,2.801034 1.44576,5.618946 4.16253,5.499406 0.068,-0.003 0.21707,-0.01029 0.33125,-0.01499 v 5.17e-4 c 1.07813,-0.0482 2.39981,-0.578867 2.71405,-1.089856 0.38293,-0.622699 -0.1889,-1.391004 -0.86713,-1.165304 -0.1111,0.037 -0.15642,0.06377 -0.4284,0.252698 -0.85689,0.595159 -2.07993,0.713115 -2.88561,0.278536 -0.66266,-0.357429 -1.33781,-1.261509 -1.38648,-1.856218 l -0.005,-0.06098 3.04064,-0.0093 3.04013,-0.0088 0.11937,-0.05891 c 0.9702,-0.477649 0.23133,-3.025868 -1.2113,-4.177006 -0.75119,-0.599392 -1.60639,-0.88817 -2.44998,-0.908471 -0.029,-6.98e-4 -0.0584,-0.0015 -0.0873,-0.0016 z m -0.0574,1.47898 c 0.0133,-2.3e-4 0.027,-1.3e-5 0.0403,0 0.5822,5.8e-4 1.1706,0.23478 1.65778,0.722953 0.38405,0.384829 0.73995,1.040619 0.78961,1.455208 l 0.0103,0.08372 h -2.44946 c -1.54012,0 -2.45323,-0.0056 -2.4598,-0.01654 -0.0307,-0.0497 0.13927,-0.551918 0.27492,-0.811837 0.48081,-0.921297 1.29919,-1.418994 2.1363,-1.433504 z" />
        <path
           id="path4774"
           style="fill:#818792;fill-opacity:1;stroke-width:0.264583"
           d="m 133.62905,86.084668 c -0.93243,0.01338 -1.87072,0.373844 -2.6448,1.16117 -0.22475,0.228599 -0.22066,0.228513 -0.22066,-0.0083 0,-1.054358 -1.34007,-1.361766 -1.64434,-0.377238 -0.048,0.15528 -0.056,9.636834 -0.008,9.820073 0.1213,0.465679 0.57637,0.741617 1.02475,0.621667 l 5.1e-4,-5.16e-4 c 0.2915,-0.078 0.52398,-0.311841 0.59997,-0.603581 0.0233,-0.0895 0.0274,-0.312761 0.0274,-1.594218 0,-1.193088 0.004,-1.489832 0.0222,-1.489832 0.0123,0 0.0941,0.0727 0.18138,0.161231 2.5756,2.613235 6.92516,0.569448 6.92516,-3.254065 0,-2.621521 -2.05663,-4.416078 -4.17287,-4.436422 -0.0301,-2.87e-4 -0.0604,-4.31e-4 -0.0904,0 z m -0.0915,1.555978 c 1.09054,0.0021 2.16049,0.668575 2.4846,2.089795 0.4829,2.117495 -0.97823,3.942984 -2.91662,3.643705 -1.38796,-0.214289 -2.41911,-1.536599 -2.33422,-2.993616 0.10351,-1.776471 1.45006,-2.74238 2.76624,-2.739884 z" />
        <path
           style="fill:#818792;fill-opacity:1;stroke-width:0.264583"
           d="m 123.53956,86.276736 c -1.4276,0.0022 -2.84899,0.01222 -2.91197,0.02842 -0.65234,0.16991 -0.75145,1.02619 -0.15296,1.32085 l 0.11627,0.05736 2.17455,0.0088 c 1.95488,0.008 2.17402,0.01189 2.17402,0.03669 0,0.0152 -1.09707,1.269635 -2.43809,2.787943 -1.34103,1.518309 -2.45945,2.794673 -2.48512,2.836003 -0.33666,0.542209 -0.0114,1.263196 0.6196,1.374076 0.0437,0.008 1.4197,0.01277 3.05769,0.01137 l 2.97812,-0.0021 0.1111,-0.04134 c 0.62955,-0.23574 0.64626,-1.080965 0.0264,-1.331185 l -0.10232,-0.04134 -2.2841,-0.0052 c -1.25645,-0.003 -2.28462,-0.01144 -2.28462,-0.01964 0,-0.008 1.10215,-1.262845 2.44947,-2.787943 1.34731,-1.525099 2.47283,-2.812724 2.50114,-2.861324 0.30994,-0.53204 -0.005,-1.241446 -0.60048,-1.351856 -0.0872,-0.01615 -1.52106,-0.02187 -2.94866,-0.01964 z"
           id="path4780" />
        <path
           style="fill:#818792;fill-opacity:1;stroke-width:0.264583"
           d="m 123.53956,86.241076 c 1.43643,-0.0023 2.87905,0.0038 2.96623,0.02015 0.60946,0.11301 0.93696,0.857003 0.61856,1.405082 -0.0282,0.0486 -1.1459,1.327509 -2.48357,2.841687 -1.33768,1.514169 -2.43189,2.756849 -2.43189,2.761589 0,0.005 0.99638,0.0088 2.21434,0.0088 1.90824,0 2.2287,0.004 2.31613,0.02636 0.72294,0.1883 0.76075,1.158636 0.0558,1.426786 l -0.10593,0.04031 -2.99569,0.0021 c -1.64771,0.001 -3.01975,-6.51e-4 -3.04891,-0.0047 v -10e-4 c -0.65637,-0.089 -1.01417,-0.867782 -0.66042,-1.437121 0.0272,-0.0438 1.14574,-1.320031 2.48564,-2.836519 l 2.43602,-2.757455 -2.16627,-0.0088 -2.16628,-0.0093 -0.11627,-0.05736 c -0.6246,-0.307509 -0.52479,-1.214609 0.15296,-1.391129 0.063,-0.0164 1.4931,-0.02721 2.92954,-0.02946 z"
           id="path4778" />
      </g>
      <g
         id="g4679"
         style="fill:#6bc4cc;fill-opacity:1;stroke-width:1.34802"
         transform="matrix(0.17533896,0,0,0.17533896,-4.8368996,119.54015)">
        <path
           style="fill:#6bc4cc;fill-opacity:1;stroke-width:0.356662"
           d="m 173.26229,167.42027 c -0.79148,0.0476 -1.68495,0.44773 -2.51664,1.24282 -2.62129,2.50592 -5.67812,4.35119 -8.94571,5.39967 -1.9504,0.62583 -2.5745,1.22824 -2.64428,2.55127 -0.10547,1.99984 1.49801,3.11883 3.59513,2.5094 5.98771,-1.74007 12.86743,-6.65812 12.86743,-9.1984 0,-1.68419 -1.03678,-2.58412 -2.35593,-2.50476 z"
           id="path4651" />
        <path
           style="fill:#6bc4cc;fill-opacity:1;stroke-width:0.356662"
           d="m 173.17393,167.26679 c 0.9567,-0.0547 1.80912,0.44674 2.32337,1.48725 0.84217,1.704 -0.07,3.14509 -3.75946,5.93917 -3.29228,2.49328 -8.90172,5.04736 -10.41177,4.7408 -2.92532,-0.59389 -3.14874,-4.35572 -0.31057,-5.23069 3.84961,-1.18678 6.87874,-2.96849 9.84642,-5.79138 0.76077,-0.72364 1.5679,-1.10258 2.31201,-1.14515 z"
           id="path4653" />
        <path
           style="fill:#6bc4cc;fill-opacity:1;stroke-width:0.356662"
           d="m 150.58512,123.99605 c -2.18483,-0.005 -4.37321,0.0321 -4.66276,0.11679 -2.11565,0.61865 -2.4714,3.66998 -0.5426,4.65398 0.66475,0.33913 0.57631,0.33052 3.64577,0.36638 l 2.87734,0.0336 v 9.99164 9.99216 l -2.90886,0.032 c -2.85905,0.0313 -2.91516,0.0341 -3.27267,0.17828 -2.27667,0.91801 -2.09314,4.20749 0.27027,4.8426 0.44385,0.11927 8.43766,0.14677 8.99118,0.031 0.76298,-0.15964 1.47807,-0.72593 1.80971,-1.4335 l 0.1695,-0.36174 0.0165,-13.15165 c 0.0183,-14.64461 0.054,-13.46406 -0.42685,-14.18414 -0.3034,-0.45436 -0.7699,-0.79546 -1.32395,-0.9679 -0.27645,-0.086 -2.45777,-0.13422 -4.64261,-0.13953 z"
           id="path4655" />
        <path
           style="fill:#6bc4cc;fill-opacity:1;stroke-width:0.356662"
           d="m 210.4471,123.99553 c -2.18509,0.007 -4.3677,0.0568 -4.65398,0.14521 -0.67828,0.2095 -1.1659,0.63716 -1.51101,1.32499 l -0.20568,0.40979 v 13.25036 13.25035 l 0.14676,0.36328 c 0.27739,0.68693 0.94773,1.25588 1.72548,1.46503 0.52429,0.14099 8.52709,0.14333 9.07076,0.003 v -5.1e-4 c 2.38998,-0.61847 2.59322,-3.9208 0.29818,-4.84622 -0.35751,-0.14415 -0.41361,-0.147 -3.27267,-0.17828 l -2.90938,-0.032 v -9.99164 -9.99216 l 2.87786,-0.0336 c 3.06901,-0.0359 2.98082,-0.0271 3.64473,-0.36587 1.93046,-0.98484 1.57513,-4.03539 -0.54208,-4.65449 -0.29645,-0.0867 -2.48387,-0.12382 -4.66897,-0.11731 z"
           id="path4657" />
        <path
           style="fill:#6bc4cc;fill-opacity:1;stroke-width:0.356662"
           d="m 150.60993,123.88133 c 2.14841,0.007 4.29118,0.0433 4.516,0.1018 0.80558,0.20982 1.39877,0.70473 1.76114,1.46968 l 0.20153,0.42529 v 13.28085 13.28032 l -0.20412,0.43099 c -0.36585,0.77242 -1.09988,1.33665 -1.94148,1.49189 -0.44393,0.0819 -8.3018,0.0841 -8.78913,0.002 -2.0392,-0.34159 -2.86531,-2.93011 -1.42214,-4.45606 0.74816,-0.79108 1.06743,-0.85214 4.42867,-0.85214 h 2.64791 v -9.92911 -9.92859 h -2.80293 c -3.0845,0 -3.19054,-0.011 -3.79099,-0.39223 -1.97531,-1.25425 -1.43987,-4.32596 0.84595,-4.85293 0.24726,-0.057 2.40118,-0.0789 4.54959,-0.0718 z"
           id="path4659" />
        <path
           style="fill:#6bc4cc;fill-opacity:1;stroke-width:0.356662"
           d="m 210.49723,123.87409 c 2.15255,2.6e-4 4.30559,0.0372 4.58577,0.11007 2.22287,0.57884 2.68161,3.59 0.73535,4.82555 -0.59399,0.37709 -0.70537,0.38861 -3.7853,0.38861 h -2.80241 v 9.92859 9.92859 h 2.64738 c 3.36126,0 3.6805,0.0616 4.42867,0.85266 1.47213,1.55656 0.61666,4.11659 -1.49086,4.46175 -0.35209,0.0577 -8.28445,0.0739 -8.62066,0.0176 -1.0185,-0.17049 -1.86405,-0.89559 -2.15181,-1.84537 -0.12568,-0.41483 -0.12674,-0.55702 -0.11007,-13.54129 l 0.0165,-13.12272 0.20153,-0.42529 c 0.36237,-0.76495 0.95557,-1.25986 1.76114,-1.46968 0.27981,-0.0729 2.43218,-0.10929 4.58473,-0.10904 z"
           id="path4661" />
        <path
           style="fill:#6bc4cc;fill-opacity:1;stroke-width:0.356662"
           d="m 206.24426,110.99994 c -0.12346,-0.002 -0.25098,-10e-4 -0.38189,0.004 -7.54981,0.29866 -13.75292,6.04477 -14.74742,13.66015 -0.14702,1.12582 -0.14752,27.86036 -5.2e-4,28.98892 0.97242,7.4655 6.70687,12.90212 14.38517,13.63793 0.52188,0.05 1.2831,0.0361 1.5937,-0.0289 3.21092,-0.67179 2.50055,-4.86989 -0.85576,-5.05757 -5.55058,-0.31038 -9.70882,-4.35842 -10.10067,-9.83299 -0.14545,-2.03203 -0.043,-26.81836 0.1142,-27.63242 0.94361,-4.88713 4.87543,-8.33497 9.84488,-8.63255 2.03368,-0.12178 3.00808,-0.95096 3.00808,-2.55902 0,-1.6186 -1.00789,-2.51071 -2.85977,-2.54765 z"
           id="path4663" />
        <path
           style="fill:#6bc4cc;fill-opacity:1;stroke-width:0.356662"
           d="m 153.078,162.64589 c -0.32555,0.21237 -0.59467,0.47177 -0.80306,0.76067 -0.24363,0.40281 -0.35648,0.89992 -0.32607,1.48725 0.10128,1.95685 1.52971,2.6998 4.44417,2.31149 7.13432,-0.95054 12.60302,-6.42807 13.53096,-13.55215 0.12058,-0.92572 0.14942,-27.71341 0.031,-28.80496 -0.75246,-6.93478 -6.05928,-12.50592 -13.02814,-13.6772 -3.1988,-0.53763 -4.87571,0.19832 -4.98006,2.18643 -0.09,1.71448 0.90431,2.62712 2.9962,2.75022 4.95479,0.29157 8.90413,3.74601 9.84126,8.60775 l 0.13849,0.71985 0.0238,13.05967 c 0.0273,15.18758 0.0392,14.83515 -0.55965,16.59071 -1.41297,4.14248 -5.08144,6.86709 -9.58547,7.11895 -0.69895,0.0391 -1.27484,0.18976 -1.7234,0.44132 z"
           id="path4665" />
        <path
           style="fill:#6bc4cc;fill-opacity:1;stroke-width:0.356662"
           d="m 154.73216,110.87902 c 0.12804,-0.004 0.25984,-0.003 0.39584,0.004 7.023,0.32488 12.91,5.14752 14.57689,11.94139 0.44111,1.79786 0.41134,0.61521 0.41134,16.33492 v 14.16554 l -0.14728,0.87798 c -1.22653,7.29933 -7.07171,12.6433 -14.42961,13.19248 -0.96805,0.0723 -1.18669,0.0718 -1.56424,-0.003 l 5.1e-4,5.2e-4 c -2.2939,-0.45274 -2.72661,-2.56348 -1.70067,-3.98581 0.18889,-0.3123 0.45748,-0.56687 0.80306,-0.76067 0.48052,-0.31348 1.08267,-0.52421 1.8004,-0.56483 4.85851,-0.27497 8.68848,-3.53751 9.75083,-8.30647 l 0.17105,-0.76636 0.0202,-13.37541 c 0.0229,-15.22018 0.0434,-14.583 -0.52865,-16.3158 -1.36546,-4.13562 -4.85836,-6.76164 -9.45627,-7.10913 -4.20935,-0.31812 -4.07273,-5.2067 -0.10335,-5.32887 z"
           id="path4667" />
        <path
           style="fill:#6bc4cc;fill-opacity:1;stroke-width:0.356662"
           d="m 206.3874,110.85887 c 1.97322,-8.9e-4 3.27456,1.6551 2.72438,3.46645 -0.37733,1.24225 -1.1627,1.75064 -2.90835,1.88257 -5.16201,0.39013 -8.84828,3.61123 -9.85417,8.61033 -0.13703,0.68103 -0.21463,26.466 -0.0837,27.8412 0.49502,5.20135 4.61379,9.12275 9.895,9.42164 2.84659,0.16109 4.15188,2.76461 2.29392,4.57543 -0.73431,0.71569 -1.35914,0.86444 -3.08147,0.73381 -7.48706,-0.56784 -13.50949,-6.3816 -14.38775,-13.88959 -0.14231,-1.21659 -0.14187,-27.47217 5.2e-4,-28.68921 0.92274,-7.8882 7.61327,-13.9491 15.40164,-13.95263 z"
           id="path4669" />
        <path
           style="fill:#6bc4cc;fill-opacity:1;stroke-width:0.356662"
           d="m 161.50177,99.002743 c -0.84304,0.01282 -1.44961,0.365463 -1.9296,1.079517 -1.02713,1.52798 -0.27348,3.36731 1.61799,3.94808 8.53204,2.61977 14.87798,9.75707 16.41709,18.46451 0.3584,2.02764 0.34024,1.20302 0.38344,17.0434 0.0432,15.85025 0.0198,14.82402 0.38137,16.94832 1.71551,10.0787 8.71511,18.53661 18.28312,22.09271 1.89939,0.70593 2.64828,0.85949 3.32021,0.68058 2.70819,-0.72109 2.5477,-4.21499 -0.23099,-5.0307 -8.00796,-2.35082 -14.39331,-9.32835 -16.15716,-17.65474 -0.52884,-2.49643 -0.53641,-2.74675 -0.53743,-18.30689 -7.5e-4,-11.3652 -0.0148,-13.43143 -0.0966,-14.29215 -1.08596,-11.42928 -8.73016,-21.0097 -19.65513,-24.63364 -0.69989,-0.232162 -1.29045,-0.346688 -1.79627,-0.338997 z"
           id="path4671" />
        <path
           style="fill:#6bc4cc;fill-opacity:1;stroke-width:0.356662"
           d="m 199.53252,98.998092 c -2.80435,-0.06298 -9.77261,3.762098 -13.2364,7.388698 -2.03042,2.12584 -0.18751,5.34336 2.50786,4.37854 0.38874,-0.13915 0.61388,-0.31396 1.62367,-1.26194 2.75607,-2.58739 5.7103,-4.30408 9.43354,-5.48132 2.65434,-0.83927 2.77427,-4.25452 0.17415,-4.958349 -0.14768,-0.03997 -0.31586,-0.06143 -0.50282,-0.06563 z"
           id="path4673" />
        <path
           style="fill:#6bc4cc;fill-opacity:1;stroke-width:0.356662"
           d="m 199.18422,98.933496 c 2.47801,-0.03035 3.96738,2.528954 2.05259,4.434874 -0.48672,0.48447 -0.57864,0.53107 -1.86758,0.94413 -3.32702,1.0662 -6.41265,2.92515 -9.06302,5.46013 -1.19384,1.14187 -1.84199,1.41199 -2.89336,1.20613 -1.91949,-0.37582 -2.78681,-2.62967 -1.62109,-4.21318 1.93588,-2.62971 7.75413,-6.25582 12.27677,-7.651216 0.38732,-0.1195 0.76169,-0.176532 1.11569,-0.180868 z"
           id="path4675" />
        <path
           style="fill:#6bc4cc;fill-opacity:1;stroke-width:0.356662"
           d="m 161.52658,98.875102 c 0.43234,-0.0062 0.91935,0.07783 1.47536,0.24908 10.19318,3.139528 17.93514,11.975488 19.75796,22.549528 0.40219,2.33302 0.37481,1.21416 0.41858,17.23202 0.0285,10.41724 0.0608,14.77202 0.11266,15.17789 1.24558,9.75123 7.36967,17.15268 16.61139,20.07681 3.43493,1.08683 2.36606,5.98864 -1.13843,5.22087 -9.84284,-2.15639 -18.85704,-12.31015 -20.54965,-23.14743 -0.32789,-2.09937 -0.30777,-1.11873 -0.3514,-16.85375 -0.0436,-15.73282 -0.0256,-14.87015 -0.3514,-16.7907 -1.45919,-8.60149 -8.03166,-16.01743 -16.34371,-18.44074 -2.13624,-0.62281 -2.86799,-2.93236 -1.41955,-4.480862 0.48815,-0.521868 1.0576,-0.782363 1.77819,-0.792716 z"
           id="path4677" />
      </g>
    </g>
    <rect
       style="fill:none;fill-opacity:1;stroke:#4d4d4d;stroke-width:1.32292;stroke-dasharray:none"
       id="rect5288"
       width="55.591034"
       height="60.979504"
       x="8.8447676"
       y="99.013435"
       ry="15.547789" />
    <path
       style="fill:none;fill-opacity:1;stroke:#0000ff;stroke-width:1.5875;stroke-linecap:round;stroke-dasharray:none"
       d="m 56.934916,118.65749 120.956764,0"
       id="path5396-0"
       sodipodi:nodetypes="cc" />
    <rect
       style="fill:#f2f2f2;stroke:#6bc4cc;stroke-width:0.264583;stroke-linecap:round;stroke-dasharray:none;stroke-opacity:1"
       id="rect14583"
       width="40.682613"
       height="19.525784"
       x="16.298977"
       y="103.14278"
       ry="0.98777676" />
    <g
       id="g11843"
       transform="translate(-45.237031,70.038818)">
      <g
         id="g11663"
         transform="translate(-121.38746,-76.335938)">
        <path
           d="m 215.55869,123.11856 0.74877,0.74877 2.77548,-2.77547 -2.77548,-2.77284 -0.74877,0.74877 1.49754,1.4949 h -7.92162 v 1.05833 h 7.92162 z"
           id="path10392"
           style="fill:#f38020;fill-opacity:1;stroke-width:0.264583" />
        <path
           d="m 221.15198,116.03567 -0.36248,-0.0503 a 7.3871666,7.3871666 0 0 1 -4.06664,-2.00819 l -0.31486,-0.35454 h -0.79375 l -0.30692,0.35454 a 7.3607082,7.3607082 0 0 1 -4.0587,2.00819 l -0.36248,0.0503 -0.45509,0.52916 v 2.96863 h 1.05834 v -2.51354 a 8.4957707,8.4957707 0 0 0 4.52173,-2.24896 8.5089999,8.5089999 0 0 0 4.5376,2.24896 v 3.28083 c 0,4.32858 -4.00844,6.56961 -4.5376,6.83948 -0.40482,-0.19844 -3.02155,-1.67217 -4.08252,-4.43177 h -1.12184 c 1.16681,3.55335 4.60904,5.31548 4.78367,5.40279 l 0.18785,0.0952 h 0.47361 l 0.18785,-0.0952 c 0.21167,-0.10319 5.16731,-2.64583 5.16731,-7.8105 v -3.74121 z"
           id="path10394"
           style="fill:#f38020;fill-opacity:1;stroke-width:0.264583" />
      </g>
      <g
         id="g11673"
         transform="matrix(0.80534347,0,0,0.80534347,-121.80173,-20.573501)"
         style="stroke-width:1.2417">
        <g
           id="g11669"
           transform="matrix(0.06825416,0,0,0.06825416,243.11209,66.991615)"
           style="stroke-width:1.47199">
          <path
             id="path11665"
             class="s1"
             d="m 90.69123,190.81382 c 0,1.69334 -1.693334,2.54 -3.413125,2.54 H -186.69793 q -0.50271,-0.0265 -0.97896,-0.21166 -0.44979,-0.21167 -0.79375,-0.58209 -0.37042,-0.34396 -0.55563,-0.79375 -0.21166,-0.47625 -0.23812,-0.9525 -0.26459,-1.16416 -0.44979,-2.32833 -0.18521,-1.16417 -0.29105,-2.35479 -0.10583,-1.16417 -0.13229,-2.35479 -0.0265,-1.19063 0.0265,-2.38125 c -0.0265,-8.04334 1.53458,-16.0073 4.57729,-23.46855 3.01625,-7.43479 7.46125,-14.23458 13.04396,-20.00249 5.60917,-5.76792 12.27667,-10.39813 19.65854,-13.62605 7.35542,-3.25437 15.26646,-5.02708 23.30979,-5.23875 q -0.42333,-1.87854 -0.68791,-3.81 -0.26459,-1.905 -0.37042,-3.83645 -0.10583,-1.93146 -0.0529,-3.86292 0.0529,-1.93146 0.26459,-3.86292 c 0.55562,-4.974164 1.93146,-9.842498 4.10104,-14.366873 2.16958,-4.497916 5.10646,-8.625416 8.65187,-12.170833 3.51896,-3.545416 7.64646,-6.455833 12.17084,-8.625416 4.49791,-2.169584 9.366247,-3.571875 14.340414,-4.1275 2.69875,-0.211667 5.423958,-0.185209 8.122708,0.07937 2.69875,0.264583 5.371042,0.740833 7.990417,1.481666 2.619375,0.714375 5.159374,1.666875 7.619999,2.8575 2.434167,1.164167 4.788959,2.54 6.985,4.1275 6.879167,-20.055416 20.108333,-37.332708 37.676667,-49.159582 C -5.1408523,11.929033 15.814147,6.1611167 36.954355,7.3252834 58.094564,8.4629917 78.30873,16.506325 94.474771,30.211741 110.64081,43.8907 121.91206,62.490908 126.54227,83.181324 c 0.84667,0.846667 0,1.719792 0,2.566458 l -8.54604,22.198538 c -1.85208,4.39209 -4.25979,8.49313 -7.19667,12.22375 -2.93687,3.75709 -6.35,7.09084 -10.16,9.92188 -3.809997,2.83104 -7.963955,5.15937 -12.382497,6.90562 -4.418541,1.74625 -9.04875,2.88396 -13.784791,3.41313 l -149.35729,1.71979 c -1.719792,0 -2.566458,0.84667 -3.413125,2.54 -0.211667,0.15875 -0.370417,0.34396 -0.47625,0.58208 -0.105833,0.21167 -0.185208,0.44979 -0.185208,0.71438 0,0.23812 0.07938,0.47625 0.185208,0.71437 0.105833,0.21167 0.264583,0.42334 0.47625,0.55563 0.846667,0 1.693333,0.84666 2.54,0.84666 l 148.537081,1.7198 c 1.719792,0.15875 3.413125,0.47625 5.08,0.97895 1.666875,0.47625 3.280834,1.13771 4.815417,1.93146 1.534583,0.82021 2.989792,1.77271 4.339167,2.8575 1.322916,1.08479 2.566458,2.30188 3.677708,3.62479 1.084791,1.61396 1.957916,3.33375 2.645833,5.15938 0.661458,1.82562 1.11125,3.70417 1.322917,5.63562 0.238125,1.93146 0.211666,3.86292 -0.02646,5.79438 -0.238125,1.93146 -0.687916,3.81 -1.375833,5.60917 z"
             style="fill:#f48120;stroke-width:0.389465" />
          <path
             id="path11667"
             class="s2"
             d="m 171.15102,92.071324 c 9.81604,4.101042 18.7325,10.080626 26.24667,17.594796 7.51416,7.51416 13.49375,16.43062 17.56833,26.24666 4.10104,9.81604 6.24417,20.34646 6.32354,30.98271 q -0.0794,2.80458 -0.34396,5.60917 -0.26458,2.80458 -0.68791,5.5827 -0.42334,2.77813 -1.03188,5.55625 -0.58208,2.75167 -1.34937,5.45042 c 0.0529,0.34396 0.0265,0.71438 -0.10584,1.03188 -0.10583,0.34395 -0.29104,0.635 -0.52916,0.89958 -0.26459,0.23812 -0.55563,0.42333 -0.89959,0.52917 -0.3175,0.13229 -0.68791,0.15875 -1.03187,0.10583 H 102.6504 c -1.7198,0 -2.56646,-1.71979 -1.7198,-2.56646 l 1.7198,-7.69937 c 1.85208,-4.36563 4.25979,-8.46667 7.19666,-12.22375 2.93688,-3.73063 6.35,-7.06438 10.16,-9.89542 3.81,-2.8575 7.99042,-5.15938 12.40896,-6.90563 4.41854,-1.74625 9.04875,-2.88395 13.75833,-3.41312 l 32.43792,-1.71979 c 1.69333,0 2.56646,-0.84667 3.41313,-2.56646 0.1852,-0.13229 0.37041,-0.34396 0.47625,-0.55562 0.10583,-0.21167 0.15875,-0.47625 0.15875,-0.71438 0,-0.23812 -0.0529,-0.50271 -0.15875,-0.71437 -0.10584,-0.23813 -0.29105,-0.42334 -0.47625,-0.55563 -0.84667,0 -1.7198,-0.87312 -2.56646,-0.87312 l -31.56479,-1.69334 c -1.74625,-0.15875 -3.43959,-0.47625 -5.10646,-0.97896 -1.66688,-0.47625 -3.28084,-1.1377 -4.78896,-1.93145 -1.53458,-0.82021 -2.98979,-1.77271 -4.33917,-2.8575 -1.34937,-1.0848 -2.59291,-2.30188 -3.70416,-3.6248 -1.0848,-1.61395 -1.95792,-3.3602 -2.61938,-5.15937 -0.68792,-1.82563 -1.13771,-3.73063 -1.34937,-5.63563 -0.21167,-1.93145 -0.21167,-3.88937 0.0264,-5.79437 0.23813,-1.93146 0.68792,-3.81 1.37584,-5.63563 l 5.97958,-20.505204 c 0.84667,-0.846667 1.71979,-1.693334 2.56646,-1.693334 h 4.25979 c 10.63625,0.05292 21.14021,2.2225 30.95625,6.323542 z"
             style="fill:#faad3f;stroke-width:0.389465" />
        </g>
        <path
           class="d"
           d="m 257.35118,82.258817 a 0.238125,0.238125 0 1 1 0.23813,-0.23813 0.23713546,0.23713546 0 0 1 -0.23813,0.23813 m 0,-0.42334 a 0.18520833,0.18520833 0 1 0 0.18521,0.18521 0.18085329,0.18085329 0 0 0 -0.18521,-0.18521 m 0.10584,0.3175 h -0.0529 l -0.0529,-0.0794 h -0.0529 v 0.0794 h -0.0529 v -0.23812 h 0.13229 a 0.07015956,0.07015956 0 0 1 0.0794,0.0794 c 0,0.0265 -0.0265,0.0529 -0.0529,0.0794 z m -0.0794,-0.13229 c 0.0265,0 0.0265,0 0.0265,-0.0265 a 0.02591329,0.02591329 0 0 0 -0.0265,-0.0265 h -0.0794 v 0.0794 h 0.0794 z m -23.73312,-0.23812 h 0.58208 v 1.5875 h 1.00542 v 0.5027 h -1.5875 z m 2.19604,1.03187 a 1.0860908,1.0860908 0 0 1 1.13771,-1.08479 1.063625,1.063625 0 0 1 1.11125,1.08479 1.0860908,1.0860908 0 0 1 -1.13771,1.08479 1.0792037,1.0792037 0 0 1 -1.11125,-1.08479 m 1.66687,0 a 0.54389072,0.54389072 0 0 0 -0.52916,-0.58208 0.55628645,0.55628645 0 0 0 0,1.11125 c 0.3175,0.0529 0.52916,-0.21167 0.52916,-0.52917 m 1.29646,0.13229 v -1.16416 h 0.58209 v 1.16416 c 0,0.29104 0.15875,0.44979 0.39687,0.44979 a 0.37022087,0.37022087 0 0 0 0.39688,-0.42333 v -1.19062 h 0.58208 v 1.16416 c 0,0.68792 -0.39688,0.97896 -0.97896,0.97896 -0.60854,-0.0265 -0.97896,-0.3175 -0.97896,-0.97896 m 2.83104,-1.16416 h 0.82021 c 0.74084,0 1.19063,0.42333 1.19063,1.03187 0,0.60854 -0.44979,1.05833 -1.19063,1.05833 h -0.79375 v -2.0902 z m 0.82021,1.56104 a 0.53157172,0.53157172 0 1 0 0,-1.05834 H 242.217 v 1.05834 z m 2.01084,-1.56104 h 1.66687 v 0.5027 h -1.08479 v 0.34396 h 0.97896 v 0.47625 h -0.97896 v 0.76729 h -0.58208 z m 2.48708,0 h 0.58208 v 1.5875 h 1.00542 v 0.5027 h -1.5875 z m 3.09562,-0.0265 h 0.58209 l 0.89958,2.11666 h -0.635 l -0.15875,-0.37041 h -0.82021 l -0.15875,0.37041 h -0.60854 z m 0.52917,1.29646 -0.23812,-0.58209 -0.23813,0.58209 z m 1.69333,-1.27 h 0.97896 a 0.90439345,0.90439345 0 0 1 0.68792,0.23812 0.69419522,0.69419522 0 0 1 -0.23813,1.11125 l 0.50271,0.74083 h -0.66146 l -0.42333,-0.635 h -0.26458 v 0.635 h -0.58209 z m 0.9525,1.00541 c 0.18521,0 0.3175,-0.10583 0.3175,-0.23812 0,-0.15875 -0.13229,-0.23813 -0.3175,-0.23813 h -0.37041 v 0.50271 h 0.37041 z m 1.7198,-1.00541 h 1.69333 v 0.47625 h -1.11125 v 0.3175 h 1.00542 v 0.47625 h -1.00542 v 0.3175 h 1.13771 v 0.5027 h -1.71979 z m -22.56896,1.29645 a 0.52267908,0.52267908 0 0 1 -0.47625,0.3175 0.55628645,0.55628645 0 0 1 0,-1.11125 0.55501645,0.55501645 0 0 1 0.50271,0.34396 h 0.60854 a 1.0939436,1.0939436 0 0 0 -1.11125,-0.87312 1.102016,1.102016 0 0 0 -1.13771,1.08479 1.0792037,1.0792037 0 0 0 1.11125,1.08479 1.1425026,1.1425026 0 0 0 1.11125,-0.84667 z"
           id="path11671"
           style="fill:#404041;stroke-width:0.328535" />
      </g>
      <text
         xml:space="preserve"
         style="font-style:normal;font-variant:normal;font-weight:normal;font-stretch:normal;font-size:14.1111px;font-family:AlArabiya;-inkscape-font-specification:'AlArabiya, Normal';font-variant-ligatures:normal;font-variant-caps:normal;font-variant-numeric:normal;font-variant-east-asian:normal;fill:#000000;fill-opacity:1;stroke:#000000;stroke-width:0.264583;stroke-linecap:round;stroke-dasharray:none"
         x="63.951607"
         y="51.456013"
         id="text11729"><tspan
           sodipodi:role="line"
           id="tspan11727"
           style="font-style:normal;font-variant:normal;font-weight:normal;font-stretch:normal;font-size:4.93889px;font-family:AlArabiya;-inkscape-font-specification:'AlArabiya, Normal';font-variant-ligatures:normal;font-variant-caps:normal;font-variant-numeric:normal;font-variant-east-asian:normal;fill:#000000;stroke:none;stroke-width:0.264583"
           x="63.951607"
           y="51.456013">Zero Trust</tspan></text>
    </g>
    <path
       style="fill:#4d4d4d;fill-opacity:1;stroke:#4d4d4d;stroke-width:0.79375;stroke-linecap:round;stroke-dasharray:0.79375, 3.175;stroke-dashoffset:0;stroke-opacity:1"
       d="M 8.7944004,129.5032 H 64.48971"
       id="path11865" />
    <path
       style="fill:#4d4d4d;fill-opacity:1;stroke:#4d4d4d;stroke-width:0.79375;stroke-linecap:round;stroke-dasharray:none;stroke-dashoffset:0;stroke-opacity:1"
       d="M 8.7944004,129.5032 H 25.29314"
       id="path12074"
       sodipodi:nodetypes="cc" />
    <path
       style="fill:#4d4d4d;fill-opacity:1;stroke:#4d4d4d;stroke-width:0.79375;stroke-linecap:round;stroke-dasharray:none;stroke-dashoffset:0;stroke-opacity:1"
       d="M 47.56568,129.5032 H 64.06441"
       id="path12078"
       sodipodi:nodetypes="cc" />
    <g
       id="g12084"
       transform="matrix(1.2276973,0,0,1.2276973,-43.07883,-9.1616292)"
       style="stroke-width:0.814533">
      <path
         d="m 215.55869,123.11856 0.74877,0.74877 2.77548,-2.77547 -2.77548,-2.77284 -0.74877,0.74877 1.49754,1.4949 h -7.92162 v 1.05833 h 7.92162 z"
         id="path12080"
         style="fill:#f38020;fill-opacity:1;stroke-width:0.215512" />
      <path
         d="m 221.15198,116.03567 -0.36248,-0.0503 a 7.3871666,7.3871666 0 0 1 -4.06664,-2.00819 l -0.31486,-0.35454 h -0.79375 l -0.30692,0.35454 a 7.3607082,7.3607082 0 0 1 -4.0587,2.00819 l -0.36248,0.0503 -0.45509,0.52916 v 2.96863 h 1.05834 v -2.51354 a 8.4957707,8.4957707 0 0 0 4.52173,-2.24896 8.5089999,8.5089999 0 0 0 4.5376,2.24896 v 3.28083 c 0,4.32858 -4.00844,6.56961 -4.5376,6.83948 -0.40482,-0.19844 -3.02155,-1.67217 -4.08252,-4.43177 h -1.12184 c 1.16681,3.55335 4.60904,5.31548 4.78367,5.40279 l 0.18785,0.0952 h 0.47361 l 0.18785,-0.0952 c 0.21167,-0.10319 5.16731,-2.64583 5.16731,-7.8105 v -3.74121 z"
         id="path12082"
         style="fill:#f38020;fill-opacity:1;stroke-width:0.215512" />
    </g>
    <g
       id="g12094"
       transform="matrix(0.988718,0,0,0.988718,-43.58743,59.297768)"
       style="stroke-width:1.01141">
      <g
         id="g12090"
         transform="matrix(0.06825416,0,0,0.06825416,243.11209,66.991615)"
         style="stroke-width:1.19898">
        <path
           id="path12086"
           class="s1"
           d="m 90.69123,190.81382 c 0,1.69334 -1.693334,2.54 -3.413125,2.54 H -186.69793 q -0.50271,-0.0265 -0.97896,-0.21166 -0.44979,-0.21167 -0.79375,-0.58209 -0.37042,-0.34396 -0.55563,-0.79375 -0.21166,-0.47625 -0.23812,-0.9525 -0.26459,-1.16416 -0.44979,-2.32833 -0.18521,-1.16417 -0.29105,-2.35479 -0.10583,-1.16417 -0.13229,-2.35479 -0.0265,-1.19063 0.0265,-2.38125 c -0.0265,-8.04334 1.53458,-16.0073 4.57729,-23.46855 3.01625,-7.43479 7.46125,-14.23458 13.04396,-20.00249 5.60917,-5.76792 12.27667,-10.39813 19.65854,-13.62605 7.35542,-3.25437 15.26646,-5.02708 23.30979,-5.23875 q -0.42333,-1.87854 -0.68791,-3.81 -0.26459,-1.905 -0.37042,-3.83645 -0.10583,-1.93146 -0.0529,-3.86292 0.0529,-1.93146 0.26459,-3.86292 c 0.55562,-4.974164 1.93146,-9.842498 4.10104,-14.366873 2.16958,-4.497916 5.10646,-8.625416 8.65187,-12.170833 3.51896,-3.545416 7.64646,-6.455833 12.17084,-8.625416 4.49791,-2.169584 9.366247,-3.571875 14.340414,-4.1275 2.69875,-0.211667 5.423958,-0.185209 8.122708,0.07937 2.69875,0.264583 5.371042,0.740833 7.990417,1.481666 2.619375,0.714375 5.159374,1.666875 7.619999,2.8575 2.434167,1.164167 4.788959,2.54 6.985,4.1275 6.879167,-20.055416 20.108333,-37.332708 37.676667,-49.159582 C -5.1408523,11.929033 15.814147,6.1611167 36.954355,7.3252834 58.094564,8.4629917 78.30873,16.506325 94.474771,30.211741 110.64081,43.8907 121.91206,62.490908 126.54227,83.181324 c 0.84667,0.846667 0,1.719792 0,2.566458 l -8.54604,22.198538 c -1.85208,4.39209 -4.25979,8.49313 -7.19667,12.22375 -2.93687,3.75709 -6.35,7.09084 -10.16,9.92188 -3.809997,2.83104 -7.963955,5.15937 -12.382497,6.90562 -4.418541,1.74625 -9.04875,2.88396 -13.784791,3.41313 l -149.35729,1.71979 c -1.719792,0 -2.566458,0.84667 -3.413125,2.54 -0.211667,0.15875 -0.370417,0.34396 -0.47625,0.58208 -0.105833,0.21167 -0.185208,0.44979 -0.185208,0.71438 0,0.23812 0.07938,0.47625 0.185208,0.71437 0.105833,0.21167 0.264583,0.42334 0.47625,0.55563 0.846667,0 1.693333,0.84666 2.54,0.84666 l 148.537081,1.7198 c 1.719792,0.15875 3.413125,0.47625 5.08,0.97895 1.666875,0.47625 3.280834,1.13771 4.815417,1.93146 1.534583,0.82021 2.989792,1.77271 4.339167,2.8575 1.322916,1.08479 2.566458,2.30188 3.677708,3.62479 1.084791,1.61396 1.957916,3.33375 2.645833,5.15938 0.661458,1.82562 1.11125,3.70417 1.322917,5.63562 0.238125,1.93146 0.211666,3.86292 -0.02646,5.79438 -0.238125,1.93146 -0.687916,3.81 -1.375833,5.60917 z"
           style="fill:#f48120;stroke-width:0.317232" />
        <path
           id="path12088"
           class="s2"
           d="m 171.15102,92.071324 c 9.81604,4.101042 18.7325,10.080626 26.24667,17.594796 7.51416,7.51416 13.49375,16.43062 17.56833,26.24666 4.10104,9.81604 6.24417,20.34646 6.32354,30.98271 q -0.0794,2.80458 -0.34396,5.60917 -0.26458,2.80458 -0.68791,5.5827 -0.42334,2.77813 -1.03188,5.55625 -0.58208,2.75167 -1.34937,5.45042 c 0.0529,0.34396 0.0265,0.71438 -0.10584,1.03188 -0.10583,0.34395 -0.29104,0.635 -0.52916,0.89958 -0.26459,0.23812 -0.55563,0.42333 -0.89959,0.52917 -0.3175,0.13229 -0.68791,0.15875 -1.03187,0.10583 H 102.6504 c -1.7198,0 -2.56646,-1.71979 -1.7198,-2.56646 l 1.7198,-7.69937 c 1.85208,-4.36563 4.25979,-8.46667 7.19666,-12.22375 2.93688,-3.73063 6.35,-7.06438 10.16,-9.89542 3.81,-2.8575 7.99042,-5.15938 12.40896,-6.90563 4.41854,-1.74625 9.04875,-2.88395 13.75833,-3.41312 l 32.43792,-1.71979 c 1.69333,0 2.56646,-0.84667 3.41313,-2.56646 0.1852,-0.13229 0.37041,-0.34396 0.47625,-0.55562 0.10583,-0.21167 0.15875,-0.47625 0.15875,-0.71438 0,-0.23812 -0.0529,-0.50271 -0.15875,-0.71437 -0.10584,-0.23813 -0.29105,-0.42334 -0.47625,-0.55563 -0.84667,0 -1.7198,-0.87312 -2.56646,-0.87312 l -31.56479,-1.69334 c -1.74625,-0.15875 -3.43959,-0.47625 -5.10646,-0.97896 -1.66688,-0.47625 -3.28084,-1.1377 -4.78896,-1.93145 -1.53458,-0.82021 -2.98979,-1.77271 -4.33917,-2.8575 -1.34937,-1.0848 -2.59291,-2.30188 -3.70416,-3.6248 -1.0848,-1.61395 -1.95792,-3.3602 -2.61938,-5.15937 -0.68792,-1.82563 -1.13771,-3.73063 -1.34937,-5.63563 -0.21167,-1.93145 -0.21167,-3.88937 0.0264,-5.79437 0.23813,-1.93146 0.68792,-3.81 1.37584,-5.63563 l 5.97958,-20.505204 c 0.84667,-0.846667 1.71979,-1.693334 2.56646,-1.693334 h 4.25979 c 10.63625,0.05292 21.14021,2.2225 30.95625,6.323542 z"
           style="fill:#faad3f;stroke-width:0.317232" />
      </g>
      <path
         class="d"
         d="m 257.35118,82.258817 a 0.238125,0.238125 0 1 1 0.23813,-0.23813 0.23713546,0.23713546 0 0 1 -0.23813,0.23813 m 0,-0.42334 a 0.18520833,0.18520833 0 1 0 0.18521,0.18521 0.18085329,0.18085329 0 0 0 -0.18521,-0.18521 m 0.10584,0.3175 h -0.0529 l -0.0529,-0.0794 h -0.0529 v 0.0794 h -0.0529 v -0.23812 h 0.13229 a 0.07015956,0.07015956 0 0 1 0.0794,0.0794 c 0,0.0265 -0.0265,0.0529 -0.0529,0.0794 z m -0.0794,-0.13229 c 0.0265,0 0.0265,0 0.0265,-0.0265 a 0.02591329,0.02591329 0 0 0 -0.0265,-0.0265 h -0.0794 v 0.0794 h 0.0794 z m -23.73312,-0.23812 h 0.58208 v 1.5875 h 1.00542 v 0.5027 h -1.5875 z m 2.19604,1.03187 a 1.0860908,1.0860908 0 0 1 1.13771,-1.08479 1.063625,1.063625 0 0 1 1.11125,1.08479 1.0860908,1.0860908 0 0 1 -1.13771,1.08479 1.0792037,1.0792037 0 0 1 -1.11125,-1.08479 m 1.66687,0 a 0.54389072,0.54389072 0 0 0 -0.52916,-0.58208 0.55628645,0.55628645 0 0 0 0,1.11125 c 0.3175,0.0529 0.52916,-0.21167 0.52916,-0.52917 m 1.29646,0.13229 v -1.16416 h 0.58209 v 1.16416 c 0,0.29104 0.15875,0.44979 0.39687,0.44979 a 0.37022087,0.37022087 0 0 0 0.39688,-0.42333 v -1.19062 h 0.58208 v 1.16416 c 0,0.68792 -0.39688,0.97896 -0.97896,0.97896 -0.60854,-0.0265 -0.97896,-0.3175 -0.97896,-0.97896 m 2.83104,-1.16416 h 0.82021 c 0.74084,0 1.19063,0.42333 1.19063,1.03187 0,0.60854 -0.44979,1.05833 -1.19063,1.05833 h -0.79375 v -2.0902 z m 0.82021,1.56104 a 0.53157172,0.53157172 0 1 0 0,-1.05834 H 242.217 v 1.05834 z m 2.01084,-1.56104 h 1.66687 v 0.5027 h -1.08479 v 0.34396 h 0.97896 v 0.47625 h -0.97896 v 0.76729 h -0.58208 z m 2.48708,0 h 0.58208 v 1.5875 h 1.00542 v 0.5027 h -1.5875 z m 3.09562,-0.0265 h 0.58209 l 0.89958,2.11666 h -0.635 l -0.15875,-0.37041 h -0.82021 l -0.15875,0.37041 h -0.60854 z m 0.52917,1.29646 -0.23812,-0.58209 -0.23813,0.58209 z m 1.69333,-1.27 h 0.97896 a 0.90439345,0.90439345 0 0 1 0.68792,0.23812 0.69419522,0.69419522 0 0 1 -0.23813,1.11125 l 0.50271,0.74083 h -0.66146 l -0.42333,-0.635 h -0.26458 v 0.635 h -0.58209 z m 0.9525,1.00541 c 0.18521,0 0.3175,-0.10583 0.3175,-0.23812 0,-0.15875 -0.13229,-0.23813 -0.3175,-0.23813 h -0.37041 v 0.50271 h 0.37041 z m 1.7198,-1.00541 h 1.69333 v 0.47625 h -1.11125 v 0.3175 h 1.00542 v 0.47625 h -1.00542 v 0.3175 h 1.13771 v 0.5027 h -1.71979 z m -22.56896,1.29645 a 0.52267908,0.52267908 0 0 1 -0.47625,0.3175 0.55628645,0.55628645 0 0 1 0,-1.11125 0.55501645,0.55501645 0 0 1 0.50271,0.34396 h 0.60854 a 1.0939436,1.0939436 0 0 0 -1.11125,-0.87312 1.102016,1.102016 0 0 0 -1.13771,1.08479 1.0792037,1.0792037 0 0 0 1.11125,1.08479 1.1425026,1.1425026 0 0 0 1.11125,-0.84667 z"
         id="path12092"
         style="fill:#404041;stroke-width:0.267603" />
    </g>
    <text
       xml:space="preserve"
       style="font-style:normal;font-variant:normal;font-weight:normal;font-stretch:normal;font-size:17.3242px;font-family:AlArabiya;-inkscape-font-specification:'AlArabiya, Normal';font-variant-ligatures:normal;font-variant-caps:normal;font-variant-numeric:normal;font-variant-east-asian:normal;fill:#000000;fill-opacity:1;stroke:#000000;stroke-width:0.264583;stroke-linecap:round;stroke-dasharray:none"
       x="184.46144"
       y="147.72821"
       id="text12098"><tspan
         sodipodi:role="line"
         id="tspan12096"
         style="font-style:normal;font-variant:normal;font-weight:normal;font-stretch:normal;font-size:6.06346px;font-family:AlArabiya;-inkscape-font-specification:'AlArabiya, Normal';font-variant-ligatures:normal;font-variant-caps:normal;font-variant-numeric:normal;font-variant-east-asian:normal;fill:#000000;stroke:none;stroke-width:0.264583"
         x="184.46144"
         y="147.72821">Zero Trust</tspan></text>
    <text
       xml:space="preserve"
       style="font-style:normal;font-variant:normal;font-weight:normal;font-stretch:normal;font-size:17.3242px;line-height:0.3;font-family:AlArabiya;-inkscape-font-specification:'AlArabiya, Normal';font-variant-ligatures:normal;font-variant-caps:normal;font-variant-numeric:normal;font-variant-east-asian:normal;fill:#000000;fill-opacity:1;stroke:#000000;stroke-width:0.264583;stroke-linecap:round;stroke-dasharray:none"
       x="205.83672"
       y="108.15424"
       id="text12106"><tspan
         sodipodi:role="line"
         id="tspan12104"
         style="font-style:normal;font-variant:normal;font-weight:normal;font-stretch:normal;font-size:6.06346px;font-family:AlArabiya;-inkscape-font-specification:'AlArabiya, Normal';font-variant-ligatures:normal;font-variant-caps:normal;font-variant-numeric:normal;font-variant-east-asian:normal;text-align:center;text-anchor:middle;fill:#000000;stroke:none;stroke-width:0.264583"
         x="205.83672"
         y="108.15424">Clouflare Global</tspan><tspan
         sodipodi:role="line"
         style="font-style:normal;font-variant:normal;font-weight:normal;font-stretch:normal;font-size:6.06346px;font-family:AlArabiya;-inkscape-font-specification:'AlArabiya, Normal';font-variant-ligatures:normal;font-variant-caps:normal;font-variant-numeric:normal;font-variant-east-asian:normal;text-align:center;text-anchor:middle;fill:#000000;stroke:none;stroke-width:0.264583"
         x="205.83672"
         y="114.59019"
         id="tspan12222">Network</tspan></text>
    <rect
       style="fill:none;fill-opacity:1;stroke:#4d4d4d;stroke-width:1.32292;stroke-dasharray:none"
       id="rect12102"
       width="55.591034"
       height="60.979504"
       x="177.97551"
       y="99.013435"
       ry="15.547789" />
    <g
       id="g12458"
       transform="translate(-12.85079,66.975958)">
      <path
         style="fill:none;fill-opacity:1;stroke:#4d4d4d;stroke-width:1.5875;stroke-linecap:round;stroke-dasharray:none"
         d="M 11.85714,102.84299 H 86.653833"
         id="path5396" />
      <circle
         style="fill:#4d4d4d;fill-opacity:1;stroke:#4d4d4d;stroke-width:0.264583;stroke-dasharray:none"
         id="path5450"
         cx="12.47213"
         cy="102.84299"
         r="2.259486" />
      <circle
         style="fill:#4d4d4d;fill-opacity:1;stroke:#4d4d4d;stroke-width:0.264583;stroke-dasharray:none"
         id="circle5590"
         cx="49.255489"
         cy="102.84299"
         r="2.259486" />
      <circle
         style="fill:#4d4d4d;fill-opacity:1;stroke:#4d4d4d;stroke-width:0.264583;stroke-dasharray:none"
         id="circle5592"
         cx="86.509979"
         cy="102.84299"
         r="2.259486" />
      <path
         style="fill:none;fill-opacity:1;stroke:#4d4d4d;stroke-width:1.5875;stroke-linecap:round;stroke-dasharray:none"
         d="M 12.472129,115.00229 V 103.58003"
         id="path5594"
         sodipodi:nodetypes="cc" />
      <path
         style="fill:none;fill-opacity:1;stroke:#4d4d4d;stroke-width:1.5875;stroke-linecap:round;stroke-dasharray:none"
         d="M 49.255489,115.00229 V 103.58003"
         id="path5692"
         sodipodi:nodetypes="cc" />
      <path
         style="fill:none;fill-opacity:1;stroke:#4d4d4d;stroke-width:1.5875;stroke-linecap:round;stroke-dasharray:none"
         d="M 86.509983,115.00229 V 103.58003"
         id="path5694"
         sodipodi:nodetypes="cc" />
      <rect
         style="fill:none;fill-opacity:1;stroke:#4d4d4d;stroke-width:2.59857;stroke-linecap:round;stroke-dasharray:none"
         id="rect5748"
         width="11.953517"
         height="9.5381536"
         x="6.4953723"
         y="115.07012"
         ry="0.71382976" />
      <rect
         style="fill:none;fill-opacity:1;stroke:#4d4d4d;stroke-width:2.59857;stroke-linecap:round;stroke-dasharray:none"
         id="rect5804"
         width="11.953517"
         height="9.5381536"
         x="43.278728"
         y="115.07012"
         ry="0.71382976" />
      <rect
         style="fill:none;fill-opacity:1;stroke:#4d4d4d;stroke-width:2.59857;stroke-linecap:round;stroke-dasharray:none"
         id="rect5806"
         width="11.953517"
         height="9.5381536"
         x="80.533218"
         y="115.07012"
         ry="0.71382976" />
      <path
         style="fill:none;fill-opacity:1;stroke:#4d4d4d;stroke-width:1.5875;stroke-linecap:round;stroke-dasharray:none"
         d="M 49.255489,102.84644 V 93.120204"
         id="path5808"
         sodipodi:nodetypes="cc" />
      <text
         xml:space="preserve"
         style="font-style:normal;font-variant:normal;font-weight:normal;font-stretch:normal;font-size:17.3242px;line-height:0.3;font-family:AlArabiya;-inkscape-font-specification:'AlArabiya, Normal';font-variant-ligatures:normal;font-variant-caps:normal;font-variant-numeric:normal;font-variant-east-asian:normal;fill:#000000;fill-opacity:1;stroke:#000000;stroke-width:0.264583;stroke-linecap:round;stroke-dasharray:none"
         x="48.342518"
         y="130.85962"
         id="text12228"><tspan
           sodipodi:role="line"
           style="font-style:normal;font-variant:normal;font-weight:normal;font-stretch:normal;font-size:6.06346px;font-family:AlArabiya;-inkscape-font-specification:'AlArabiya, Normal';font-variant-ligatures:normal;font-variant-caps:normal;font-variant-numeric:normal;font-variant-east-asian:normal;text-align:center;text-anchor:middle;fill:#000000;stroke:none;stroke-width:0.264583"
           x="48.342518"
           y="130.85962"
           id="tspan12226">LAN protected by </tspan><tspan
           sodipodi:role="line"
           style="font-style:normal;font-variant:normal;font-weight:normal;font-stretch:normal;font-size:6.06346px;font-family:AlArabiya;-inkscape-font-specification:'AlArabiya, Normal';font-variant-ligatures:normal;font-variant-caps:normal;font-variant-numeric:normal;font-variant-east-asian:normal;text-align:center;text-anchor:middle;fill:#000000;stroke:none;stroke-width:0.264583"
           x="48.342518"
           y="137.29556"
           id="tspan14363">Cloudflare Zero Trust</tspan></text>
    </g>
    <text
       xml:space="preserve"
       style="font-style:normal;font-variant:normal;font-weight:normal;font-stretch:normal;font-size:17.3242px;line-height:0.3;font-family:AlArabiya;-inkscape-font-specification:'AlArabiya, Normal';font-variant-ligatures:normal;font-variant-caps:normal;font-variant-numeric:normal;font-variant-east-asian:normal;fill:#808080;fill-opacity:1;stroke:#000000;stroke-width:0.264583;stroke-linecap:round;stroke-dasharray:none"
       x="122.06094"
       y="133.82288"
       id="text12325"><tspan
         sodipodi:role="line"
         style="font-style:normal;font-variant:normal;font-weight:normal;font-stretch:normal;font-size:6.06346px;font-family:AlArabiya;-inkscape-font-specification:'AlArabiya, Normal';font-variant-ligatures:normal;font-variant-caps:normal;font-variant-numeric:normal;font-variant-east-asian:normal;text-align:center;text-anchor:middle;fill:#808080;stroke:none;stroke-width:0.264583"
         x="122.06094"
         y="133.82288"
         id="tspan12323">Internet</tspan></text>
    <text
       xml:space="preserve"
       style="font-style:normal;font-variant:normal;font-weight:normal;font-stretch:normal;font-size:17.3242px;line-height:0.3;font-family:AlArabiya;-inkscape-font-specification:'AlArabiya, Normal';font-variant-ligatures:normal;font-variant-caps:normal;font-variant-numeric:normal;font-variant-east-asian:normal;fill:#000000;fill-opacity:1;stroke:#000000;stroke-width:0.264583;stroke-linecap:round;stroke-dasharray:none"
       x="79.38279"
       y="117.05494"
       id="text12381"><tspan
         sodipodi:role="line"
         style="font-style:normal;font-variant:normal;font-weight:normal;font-stretch:normal;font-size:6.06346px;font-family:AlArabiya;-inkscape-font-specification:'AlArabiya, Normal';font-variant-ligatures:normal;font-variant-caps:normal;font-variant-numeric:normal;font-variant-east-asian:normal;text-align:center;text-anchor:middle;fill:#000000;stroke:none;stroke-width:0.264583"
         x="79.38279"
         y="117.05494"
         id="tspan12379">Tunnel</tspan></text>
    <g
       id="g12509"
       transform="translate(49.70699,-25.260072)"
       style="fill:#0000ff;fill-opacity:1;stroke:#0000ff;stroke-opacity:1">
      <path
         style="fill:#0000ff;fill-opacity:1;stroke:#0000ff;stroke-width:1.5875;stroke-linecap:round;stroke-dasharray:none;stroke-opacity:1"
         d="M 194.78707,192.39718 V 117.60049"
         id="path12460" />
      <circle
         style="fill:#0000ff;fill-opacity:1;stroke:#0000ff;stroke-width:0.264583;stroke-dasharray:none;stroke-opacity:1"
         id="circle12462"
         cx="-191.7822"
         cy="194.78706"
         r="2.259486"
         transform="rotate(-90)" />
      <circle
         style="fill:#0000ff;fill-opacity:1;stroke:#0000ff;stroke-width:0.264583;stroke-dasharray:none;stroke-opacity:1"
         id="circle12464"
         cx="-154.99883"
         cy="194.78706"
         r="2.259486"
         transform="rotate(-90)" />
      <circle
         style="fill:#0000ff;fill-opacity:1;stroke:#0000ff;stroke-width:0.264583;stroke-dasharray:none;stroke-opacity:1"
         id="circle12466"
         cx="-117.74434"
         cy="194.78706"
         r="2.259486"
         transform="rotate(-90)" />
      <path
         style="fill:#0000ff;fill-opacity:1;stroke:#0000ff;stroke-width:1.5875;stroke-linecap:round;stroke-dasharray:none;stroke-opacity:1"
         d="M 206.94637,191.78219 H 195.52411"
         id="path12468"
         sodipodi:nodetypes="cc" />
      <path
         style="fill:#0000ff;fill-opacity:1;stroke:#0000ff;stroke-width:1.5875;stroke-linecap:round;stroke-dasharray:none;stroke-opacity:1"
         d="M 206.94637,154.99883 H 195.52411"
         id="path12470"
         sodipodi:nodetypes="cc" />
      <path
         style="fill:#0000ff;fill-opacity:1;stroke:#0000ff;stroke-width:1.5875;stroke-linecap:round;stroke-dasharray:none;stroke-opacity:1"
         d="M 206.94637,117.74434 H 195.52411"
         id="path12472"
         sodipodi:nodetypes="cc" />
      <path
         style="fill:#0000ff;fill-opacity:1;stroke:#0000ff;stroke-width:1.5875;stroke-linecap:round;stroke-dasharray:none;stroke-opacity:1"
         d="m 194.79052,154.99883 h -9.72624"
         id="path12480"
         sodipodi:nodetypes="cc" />
    </g>
    <path
       style="fill:#ffffff;stroke:#000000;stroke-width:0.79375;stroke-linecap:round"
       d="m 272.17251,81.507884 h 5.2e-4 c 3.77912,0.0404 7.52567,2.43895 8.65321,6.73085 0.20257,0.771 0.13382,0.70752 1.26917,1.17874 6.67606,2.77088 6.03143,12.631946 -0.96531,14.765006 l -0.62942,0.19225 -9.35757,0.0165 c -7.50302,0.0138 -9.45766,-0.004 -9.86141,-0.0935 -5.36181,-1.1826 -7.26966,-8.128686 -3.26234,-11.877336 l 0.57207,-0.53485 0.008,-1.05575 c 0.0202,-2.85168 1.94405,-4.78734 4.80489,-4.83485 0.56718,-0.009 1.0432,-0.0316 1.0573,-0.0491 0.0142,-0.0175 0.19042,-0.27719 0.39171,-0.57722 1.78651,-2.66296 4.56123,-3.88991 7.31893,-3.86075 z"
       id="path12726" />
    <text
       xml:space="preserve"
       style="font-style:normal;font-variant:normal;font-weight:normal;font-stretch:normal;font-size:17.3242px;line-height:0.3;font-family:AlArabiya;-inkscape-font-specification:'AlArabiya, Normal';font-variant-ligatures:normal;font-variant-caps:normal;font-variant-numeric:normal;font-variant-east-asian:normal;fill:#000000;fill-opacity:1;stroke:#000000;stroke-width:0.264583;stroke-linecap:round;stroke-dasharray:none"
       x="271.08923"
       y="111.60172"
       id="text12730"><tspan
         sodipodi:role="line"
         style="font-style:normal;font-variant:normal;font-weight:normal;font-stretch:normal;font-size:6.06346px;font-family:AlArabiya;-inkscape-font-specification:'AlArabiya, Normal';font-variant-ligatures:normal;font-variant-caps:normal;font-variant-numeric:normal;font-variant-east-asian:normal;text-align:center;text-anchor:middle;fill:#000000;stroke:none;stroke-width:0.264583"
         x="271.08923"
         y="111.60172"
         id="tspan12728">Internet</tspan></text>
    <path
       style="fill:#ffffff;stroke:#000000;stroke-width:0.79375;stroke-linecap:round"
       d="m 272.17251,115.46841 h 5.2e-4 c 3.77912,0.0404 7.52567,2.43895 8.65321,6.73085 0.20257,0.771 0.13382,0.70752 1.26917,1.17874 6.67606,2.77088 6.03143,12.63194 -0.96531,14.76499 l -0.62942,0.19224 -9.35757,0.0165 c -7.50302,0.0138 -9.45766,-0.004 -9.86141,-0.0935 -5.36181,-1.18259 -7.26966,-8.12866 -3.26234,-11.87731 l 0.57207,-0.53485 0.008,-1.05575 c 0.0202,-2.85168 1.94405,-4.78734 4.80489,-4.83485 0.56718,-0.009 1.0432,-0.0316 1.0573,-0.0491 0.0142,-0.0175 0.19042,-0.27719 0.39171,-0.57723 1.78651,-2.66295 4.56123,-3.8899 7.31893,-3.86074 z"
       id="path12732" />
    <text
       xml:space="preserve"
       style="font-style:normal;font-variant:normal;font-weight:normal;font-stretch:normal;font-size:17.3242px;line-height:0.3;font-family:AlArabiya;-inkscape-font-specification:'AlArabiya, Normal';font-variant-ligatures:normal;font-variant-caps:normal;font-variant-numeric:normal;font-variant-east-asian:normal;fill:#000000;fill-opacity:1;stroke:#000000;stroke-width:0.264583;stroke-linecap:round;stroke-dasharray:none"
       x="271.08923"
       y="145.56226"
       id="text12736"><tspan
         sodipodi:role="line"
         style="font-style:normal;font-variant:normal;font-weight:normal;font-stretch:normal;font-size:6.06346px;font-family:AlArabiya;-inkscape-font-specification:'AlArabiya, Normal';font-variant-ligatures:normal;font-variant-caps:normal;font-variant-numeric:normal;font-variant-east-asian:normal;text-align:center;text-anchor:middle;fill:#000000;stroke:none;stroke-width:0.264583"
         x="271.08923"
         y="145.56226"
         id="tspan12734">Private</tspan><tspan
         sodipodi:role="line"
         style="font-style:normal;font-variant:normal;font-weight:normal;font-stretch:normal;font-size:6.06346px;font-family:AlArabiya;-inkscape-font-specification:'AlArabiya, Normal';font-variant-ligatures:normal;font-variant-caps:normal;font-variant-numeric:normal;font-variant-east-asian:normal;text-align:center;text-anchor:middle;fill:#000000;stroke:none;stroke-width:0.264583"
         x="271.08923"
         y="151.9982"
         id="tspan12840">Networks</tspan></text>
    <path
       style="fill:#ffffff;stroke:#000000;stroke-width:0.79375;stroke-linecap:round"
       d="m 272.17251,155.90739 h 5.2e-4 c 3.77912,0.0404 7.52567,2.43895 8.65321,6.73086 0.20257,0.771 0.13382,0.70751 1.26917,1.17873 6.67606,2.77088 6.03143,12.63194 -0.96531,14.765 l -0.62942,0.19224 -9.35757,0.0165 c -7.50302,0.0138 -9.45766,-0.004 -9.86141,-0.0935 -5.36181,-1.1826 -7.26966,-8.12867 -3.26234,-11.87732 l 0.57207,-0.53485 0.008,-1.05575 c 0.0202,-2.85167 1.94405,-4.78734 4.80489,-4.83485 0.56718,-0.009 1.0432,-0.0316 1.0573,-0.0491 0.0142,-0.0175 0.19042,-0.27719 0.39171,-0.57722 1.78651,-2.66296 4.56123,-3.88991 7.31893,-3.86075 z"
       id="path12842" />
    <text
       xml:space="preserve"
       style="font-style:normal;font-variant:normal;font-weight:normal;font-stretch:normal;font-size:17.3242px;line-height:0.3;font-family:AlArabiya;-inkscape-font-specification:'AlArabiya, Normal';font-variant-ligatures:normal;font-variant-caps:normal;font-variant-numeric:normal;font-variant-east-asian:normal;fill:#000000;fill-opacity:1;stroke:#000000;stroke-width:0.264583;stroke-linecap:round;stroke-dasharray:none"
       x="271.08923"
       y="186.00124"
       id="text12848"><tspan
         sodipodi:role="line"
         style="font-style:normal;font-variant:normal;font-weight:normal;font-stretch:normal;font-size:6.06346px;font-family:AlArabiya;-inkscape-font-specification:'AlArabiya, Normal';font-variant-ligatures:normal;font-variant-caps:normal;font-variant-numeric:normal;font-variant-east-asian:normal;text-align:center;text-anchor:middle;fill:#000000;stroke:none;stroke-width:0.264583"
         x="271.08923"
         y="186.00124"
         id="tspan12846">...</tspan></text>
    <text
       xml:space="preserve"
       style="font-style:normal;font-variant:normal;font-weight:normal;font-stretch:normal;font-size:17.3242px;line-height:0.3;font-family:AlArabiya;-inkscape-font-specification:'AlArabiya, Normal';font-variant-ligatures:normal;font-variant-caps:normal;font-variant-numeric:normal;font-variant-east-asian:normal;fill:#000000;fill-opacity:1;stroke:#000000;stroke-width:0.264583;stroke-linecap:round;stroke-dasharray:none"
       x="46.502113"
       y="148.51486"
       id="text14461"><tspan
         sodipodi:role="line"
         style="font-style:normal;font-variant:normal;font-weight:normal;font-stretch:normal;font-size:6.06346px;font-family:AlArabiya;-inkscape-font-specification:'AlArabiya, Normal';font-variant-ligatures:normal;font-variant-caps:normal;font-variant-numeric:normal;font-variant-east-asian:normal;text-align:center;text-anchor:middle;fill:#000000;stroke:none;stroke-width:0.264583"
         x="46.502113"
         y="148.51486"
         id="tspan14459">Nodegrid</tspan><tspan
         sodipodi:role="line"
         style="font-style:normal;font-variant:normal;font-weight:normal;font-stretch:normal;font-size:6.06346px;font-family:AlArabiya;-inkscape-font-specification:'AlArabiya, Normal';font-variant-ligatures:normal;font-variant-caps:normal;font-variant-numeric:normal;font-variant-east-asian:normal;text-align:center;text-anchor:middle;fill:#000000;stroke:none;stroke-width:0.264583"
         x="46.502113"
         y="154.95081"
         id="tspan14581">Hive SR</tspan></text>
    <text
       xml:space="preserve"
       style="font-style:normal;font-variant:normal;font-weight:normal;font-stretch:normal;font-size:4.93889px;line-height:0.3;font-family:AlArabiya;-inkscape-font-specification:'AlArabiya, Normal';font-variant-ligatures:normal;font-variant-caps:normal;font-variant-numeric:normal;font-variant-east-asian:normal;fill:#6bc4cc;fill-opacity:1;stroke:#000000;stroke-width:0.264583;stroke-linecap:round;stroke-dasharray:none"
       x="36.767872"
       y="126.70457"
       id="text15067"><tspan
         sodipodi:role="line"
         style="font-style:normal;font-variant:normal;font-weight:normal;font-stretch:normal;font-size:4.93889px;font-family:AlArabiya;-inkscape-font-specification:'AlArabiya, Normal';font-variant-ligatures:normal;font-variant-caps:normal;font-variant-numeric:normal;font-variant-east-asian:normal;text-align:center;text-anchor:middle;fill:#6bc4cc;stroke:none;stroke-width:0.264583;fill-opacity:1"
         x="36.767872"
         y="126.70457"
         id="tspan15065">Application</tspan></text>
    <g
       id="g16042"
       transform="matrix(0.63583004,0,0,0.63583004,249.10627,108.65052)"
       style="stroke-width:1.57275">
      <g
         id="g16010"
         style="fill:#818792;fill-opacity:1;stroke-width:1.57275"
         transform="matrix(0.62955775,0,0,0.62955775,-38.11346,86.206848)">
        <path
           id="path16002"
           style="fill:#818792;fill-opacity:1;stroke-width:0.416122"
           d="m 143.51062,86.108439 c -1.82493,-0.0041 -3.57738,1.24489 -4.08657,3.320211 -0.68725,2.801034 1.44576,5.618946 4.16253,5.499406 0.068,-0.003 0.21707,-0.01029 0.33125,-0.01499 v 5.17e-4 c 1.07813,-0.0482 2.39981,-0.578867 2.71405,-1.089856 0.38293,-0.622699 -0.1889,-1.391004 -0.86713,-1.165304 -0.1111,0.037 -0.15642,0.06377 -0.4284,0.252698 -0.85689,0.595159 -2.07993,0.713115 -2.88561,0.278536 -0.66266,-0.357429 -1.33781,-1.261509 -1.38648,-1.856218 l -0.005,-0.06098 3.04064,-0.0093 3.04013,-0.0088 0.11937,-0.05891 c 0.9702,-0.477649 0.23133,-3.025868 -1.2113,-4.177006 -0.75119,-0.599392 -1.60639,-0.88817 -2.44998,-0.908471 -0.029,-6.98e-4 -0.0584,-0.0015 -0.0873,-0.0016 z m -0.0574,1.47898 c 0.0133,-2.3e-4 0.027,-1.3e-5 0.0403,0 0.5822,5.8e-4 1.1706,0.23478 1.65778,0.722953 0.38405,0.384829 0.73995,1.040619 0.78961,1.455208 l 0.0103,0.08372 h -2.44946 c -1.54012,0 -2.45323,-0.0056 -2.4598,-0.01654 -0.0307,-0.0497 0.13927,-0.551918 0.27492,-0.811837 0.48081,-0.921297 1.29919,-1.418994 2.1363,-1.433504 z" />
        <path
           id="path16004"
           style="fill:#818792;fill-opacity:1;stroke-width:0.416122"
           d="m 133.62905,86.084668 c -0.93243,0.01338 -1.87072,0.373844 -2.6448,1.16117 -0.22475,0.228599 -0.22066,0.228513 -0.22066,-0.0083 0,-1.054358 -1.34007,-1.361766 -1.64434,-0.377238 -0.048,0.15528 -0.056,9.636834 -0.008,9.820073 0.1213,0.465679 0.57637,0.741617 1.02475,0.621667 l 5.1e-4,-5.16e-4 c 0.2915,-0.078 0.52398,-0.311841 0.59997,-0.603581 0.0233,-0.0895 0.0274,-0.312761 0.0274,-1.594218 0,-1.193088 0.004,-1.489832 0.0222,-1.489832 0.0123,0 0.0941,0.0727 0.18138,0.161231 2.5756,2.613235 6.92516,0.569448 6.92516,-3.254065 0,-2.621521 -2.05663,-4.416078 -4.17287,-4.436422 -0.0301,-2.87e-4 -0.0604,-4.31e-4 -0.0904,0 z m -0.0915,1.555978 c 1.09054,0.0021 2.16049,0.668575 2.4846,2.089795 0.4829,2.117495 -0.97823,3.942984 -2.91662,3.643705 -1.38796,-0.214289 -2.41911,-1.536599 -2.33422,-2.993616 0.10351,-1.776471 1.45006,-2.74238 2.76624,-2.739884 z" />
        <path
           style="fill:#818792;fill-opacity:1;stroke-width:0.416122"
           d="m 123.53956,86.276736 c -1.4276,0.0022 -2.84899,0.01222 -2.91197,0.02842 -0.65234,0.16991 -0.75145,1.02619 -0.15296,1.32085 l 0.11627,0.05736 2.17455,0.0088 c 1.95488,0.008 2.17402,0.01189 2.17402,0.03669 0,0.0152 -1.09707,1.269635 -2.43809,2.787943 -1.34103,1.518309 -2.45945,2.794673 -2.48512,2.836003 -0.33666,0.542209 -0.0114,1.263196 0.6196,1.374076 0.0437,0.008 1.4197,0.01277 3.05769,0.01137 l 2.97812,-0.0021 0.1111,-0.04134 c 0.62955,-0.23574 0.64626,-1.080965 0.0264,-1.331185 l -0.10232,-0.04134 -2.2841,-0.0052 c -1.25645,-0.003 -2.28462,-0.01144 -2.28462,-0.01964 0,-0.008 1.10215,-1.262845 2.44947,-2.787943 1.34731,-1.525099 2.47283,-2.812724 2.50114,-2.861324 0.30994,-0.53204 -0.005,-1.241446 -0.60048,-1.351856 -0.0872,-0.01615 -1.52106,-0.02187 -2.94866,-0.01964 z"
           id="path16006" />
        <path
           style="fill:#818792;fill-opacity:1;stroke-width:0.416122"
           d="m 123.53956,86.241076 c 1.43643,-0.0023 2.87905,0.0038 2.96623,0.02015 0.60946,0.11301 0.93696,0.857003 0.61856,1.405082 -0.0282,0.0486 -1.1459,1.327509 -2.48357,2.841687 -1.33768,1.514169 -2.43189,2.756849 -2.43189,2.761589 0,0.005 0.99638,0.0088 2.21434,0.0088 1.90824,0 2.2287,0.004 2.31613,0.02636 0.72294,0.1883 0.76075,1.158636 0.0558,1.426786 l -0.10593,0.04031 -2.99569,0.0021 c -1.64771,0.001 -3.01975,-6.51e-4 -3.04891,-0.0047 v -10e-4 c -0.65637,-0.089 -1.01417,-0.867782 -0.66042,-1.437121 0.0272,-0.0438 1.14574,-1.320031 2.48564,-2.836519 l 2.43602,-2.757455 -2.16627,-0.0088 -2.16628,-0.0093 -0.11627,-0.05736 c -0.6246,-0.307509 -0.52479,-1.214609 0.15296,-1.391129 0.063,-0.0164 1.4931,-0.02721 2.92954,-0.02946 z"
           id="path16008" />
      </g>
      <g
         id="g16040"
         style="fill:#6bc4cc;fill-opacity:1;stroke-width:2.12009"
         transform="matrix(0.17533896,0,0,0.17533896,-4.8368996,119.54015)">
        <path
           style="fill:#6bc4cc;fill-opacity:1;stroke-width:0.560939"
           d="m 173.26229,167.42027 c -0.79148,0.0476 -1.68495,0.44773 -2.51664,1.24282 -2.62129,2.50592 -5.67812,4.35119 -8.94571,5.39967 -1.9504,0.62583 -2.5745,1.22824 -2.64428,2.55127 -0.10547,1.99984 1.49801,3.11883 3.59513,2.5094 5.98771,-1.74007 12.86743,-6.65812 12.86743,-9.1984 0,-1.68419 -1.03678,-2.58412 -2.35593,-2.50476 z"
           id="path16012" />
        <path
           style="fill:#6bc4cc;fill-opacity:1;stroke-width:0.560939"
           d="m 173.17393,167.26679 c 0.9567,-0.0547 1.80912,0.44674 2.32337,1.48725 0.84217,1.704 -0.07,3.14509 -3.75946,5.93917 -3.29228,2.49328 -8.90172,5.04736 -10.41177,4.7408 -2.92532,-0.59389 -3.14874,-4.35572 -0.31057,-5.23069 3.84961,-1.18678 6.87874,-2.96849 9.84642,-5.79138 0.76077,-0.72364 1.5679,-1.10258 2.31201,-1.14515 z"
           id="path16014" />
        <path
           style="fill:#6bc4cc;fill-opacity:1;stroke-width:0.560939"
           d="m 150.58512,123.99605 c -2.18483,-0.005 -4.37321,0.0321 -4.66276,0.11679 -2.11565,0.61865 -2.4714,3.66998 -0.5426,4.65398 0.66475,0.33913 0.57631,0.33052 3.64577,0.36638 l 2.87734,0.0336 v 9.99164 9.99216 l -2.90886,0.032 c -2.85905,0.0313 -2.91516,0.0341 -3.27267,0.17828 -2.27667,0.91801 -2.09314,4.20749 0.27027,4.8426 0.44385,0.11927 8.43766,0.14677 8.99118,0.031 0.76298,-0.15964 1.47807,-0.72593 1.80971,-1.4335 l 0.1695,-0.36174 0.0165,-13.15165 c 0.0183,-14.64461 0.054,-13.46406 -0.42685,-14.18414 -0.3034,-0.45436 -0.7699,-0.79546 -1.32395,-0.9679 -0.27645,-0.086 -2.45777,-0.13422 -4.64261,-0.13953 z"
           id="path16016" />
        <path
           style="fill:#6bc4cc;fill-opacity:1;stroke-width:0.560939"
           d="m 210.4471,123.99553 c -2.18509,0.007 -4.3677,0.0568 -4.65398,0.14521 -0.67828,0.2095 -1.1659,0.63716 -1.51101,1.32499 l -0.20568,0.40979 v 13.25036 13.25035 l 0.14676,0.36328 c 0.27739,0.68693 0.94773,1.25588 1.72548,1.46503 0.52429,0.14099 8.52709,0.14333 9.07076,0.003 v -5.1e-4 c 2.38998,-0.61847 2.59322,-3.9208 0.29818,-4.84622 -0.35751,-0.14415 -0.41361,-0.147 -3.27267,-0.17828 l -2.90938,-0.032 v -9.99164 -9.99216 l 2.87786,-0.0336 c 3.06901,-0.0359 2.98082,-0.0271 3.64473,-0.36587 1.93046,-0.98484 1.57513,-4.03539 -0.54208,-4.65449 -0.29645,-0.0867 -2.48387,-0.12382 -4.66897,-0.11731 z"
           id="path16018" />
        <path
           style="fill:#6bc4cc;fill-opacity:1;stroke-width:0.560939"
           d="m 150.60993,123.88133 c 2.14841,0.007 4.29118,0.0433 4.516,0.1018 0.80558,0.20982 1.39877,0.70473 1.76114,1.46968 l 0.20153,0.42529 v 13.28085 13.28032 l -0.20412,0.43099 c -0.36585,0.77242 -1.09988,1.33665 -1.94148,1.49189 -0.44393,0.0819 -8.3018,0.0841 -8.78913,0.002 -2.0392,-0.34159 -2.86531,-2.93011 -1.42214,-4.45606 0.74816,-0.79108 1.06743,-0.85214 4.42867,-0.85214 h 2.64791 v -9.92911 -9.92859 h -2.80293 c -3.0845,0 -3.19054,-0.011 -3.79099,-0.39223 -1.97531,-1.25425 -1.43987,-4.32596 0.84595,-4.85293 0.24726,-0.057 2.40118,-0.0789 4.54959,-0.0718 z"
           id="path16020" />
        <path
           style="fill:#6bc4cc;fill-opacity:1;stroke-width:0.560939"
           d="m 210.49723,123.87409 c 2.15255,2.6e-4 4.30559,0.0372 4.58577,0.11007 2.22287,0.57884 2.68161,3.59 0.73535,4.82555 -0.59399,0.37709 -0.70537,0.38861 -3.7853,0.38861 h -2.80241 v 9.92859 9.92859 h 2.64738 c 3.36126,0 3.6805,0.0616 4.42867,0.85266 1.47213,1.55656 0.61666,4.11659 -1.49086,4.46175 -0.35209,0.0577 -8.28445,0.0739 -8.62066,0.0176 -1.0185,-0.17049 -1.86405,-0.89559 -2.15181,-1.84537 -0.12568,-0.41483 -0.12674,-0.55702 -0.11007,-13.54129 l 0.0165,-13.12272 0.20153,-0.42529 c 0.36237,-0.76495 0.95557,-1.25986 1.76114,-1.46968 0.27981,-0.0729 2.43218,-0.10929 4.58473,-0.10904 z"
           id="path16022" />
        <path
           style="fill:#6bc4cc;fill-opacity:1;stroke-width:0.560939"
           d="m 206.24426,110.99994 c -0.12346,-0.002 -0.25098,-10e-4 -0.38189,0.004 -7.54981,0.29866 -13.75292,6.04477 -14.74742,13.66015 -0.14702,1.12582 -0.14752,27.86036 -5.2e-4,28.98892 0.97242,7.4655 6.70687,12.90212 14.38517,13.63793 0.52188,0.05 1.2831,0.0361 1.5937,-0.0289 3.21092,-0.67179 2.50055,-4.86989 -0.85576,-5.05757 -5.55058,-0.31038 -9.70882,-4.35842 -10.10067,-9.83299 -0.14545,-2.03203 -0.043,-26.81836 0.1142,-27.63242 0.94361,-4.88713 4.87543,-8.33497 9.84488,-8.63255 2.03368,-0.12178 3.00808,-0.95096 3.00808,-2.55902 0,-1.6186 -1.00789,-2.51071 -2.85977,-2.54765 z"
           id="path16024" />
        <path
           style="fill:#6bc4cc;fill-opacity:1;stroke-width:0.560939"
           d="m 153.078,162.64589 c -0.32555,0.21237 -0.59467,0.47177 -0.80306,0.76067 -0.24363,0.40281 -0.35648,0.89992 -0.32607,1.48725 0.10128,1.95685 1.52971,2.6998 4.44417,2.31149 7.13432,-0.95054 12.60302,-6.42807 13.53096,-13.55215 0.12058,-0.92572 0.14942,-27.71341 0.031,-28.80496 -0.75246,-6.93478 -6.05928,-12.50592 -13.02814,-13.6772 -3.1988,-0.53763 -4.87571,0.19832 -4.98006,2.18643 -0.09,1.71448 0.90431,2.62712 2.9962,2.75022 4.95479,0.29157 8.90413,3.74601 9.84126,8.60775 l 0.13849,0.71985 0.0238,13.05967 c 0.0273,15.18758 0.0392,14.83515 -0.55965,16.59071 -1.41297,4.14248 -5.08144,6.86709 -9.58547,7.11895 -0.69895,0.0391 -1.27484,0.18976 -1.7234,0.44132 z"
           id="path16026" />
        <path
           style="fill:#6bc4cc;fill-opacity:1;stroke-width:0.560939"
           d="m 154.73216,110.87902 c 0.12804,-0.004 0.25984,-0.003 0.39584,0.004 7.023,0.32488 12.91,5.14752 14.57689,11.94139 0.44111,1.79786 0.41134,0.61521 0.41134,16.33492 v 14.16554 l -0.14728,0.87798 c -1.22653,7.29933 -7.07171,12.6433 -14.42961,13.19248 -0.96805,0.0723 -1.18669,0.0718 -1.56424,-0.003 l 5.1e-4,5.2e-4 c -2.2939,-0.45274 -2.72661,-2.56348 -1.70067,-3.98581 0.18889,-0.3123 0.45748,-0.56687 0.80306,-0.76067 0.48052,-0.31348 1.08267,-0.52421 1.8004,-0.56483 4.85851,-0.27497 8.68848,-3.53751 9.75083,-8.30647 l 0.17105,-0.76636 0.0202,-13.37541 c 0.0229,-15.22018 0.0434,-14.583 -0.52865,-16.3158 -1.36546,-4.13562 -4.85836,-6.76164 -9.45627,-7.10913 -4.20935,-0.31812 -4.07273,-5.2067 -0.10335,-5.32887 z"
           id="path16028" />
        <path
           style="fill:#6bc4cc;fill-opacity:1;stroke-width:0.560939"
           d="m 206.3874,110.85887 c 1.97322,-8.9e-4 3.27456,1.6551 2.72438,3.46645 -0.37733,1.24225 -1.1627,1.75064 -2.90835,1.88257 -5.16201,0.39013 -8.84828,3.61123 -9.85417,8.61033 -0.13703,0.68103 -0.21463,26.466 -0.0837,27.8412 0.49502,5.20135 4.61379,9.12275 9.895,9.42164 2.84659,0.16109 4.15188,2.76461 2.29392,4.57543 -0.73431,0.71569 -1.35914,0.86444 -3.08147,0.73381 -7.48706,-0.56784 -13.50949,-6.3816 -14.38775,-13.88959 -0.14231,-1.21659 -0.14187,-27.47217 5.2e-4,-28.68921 0.92274,-7.8882 7.61327,-13.9491 15.40164,-13.95263 z"
           id="path16030" />
        <path
           style="fill:#6bc4cc;fill-opacity:1;stroke-width:0.560939"
           d="m 161.50177,99.002743 c -0.84304,0.01282 -1.44961,0.365463 -1.9296,1.079517 -1.02713,1.52798 -0.27348,3.36731 1.61799,3.94808 8.53204,2.61977 14.87798,9.75707 16.41709,18.46451 0.3584,2.02764 0.34024,1.20302 0.38344,17.0434 0.0432,15.85025 0.0198,14.82402 0.38137,16.94832 1.71551,10.0787 8.71511,18.53661 18.28312,22.09271 1.89939,0.70593 2.64828,0.85949 3.32021,0.68058 2.70819,-0.72109 2.5477,-4.21499 -0.23099,-5.0307 -8.00796,-2.35082 -14.39331,-9.32835 -16.15716,-17.65474 -0.52884,-2.49643 -0.53641,-2.74675 -0.53743,-18.30689 -7.5e-4,-11.3652 -0.0148,-13.43143 -0.0966,-14.29215 -1.08596,-11.42928 -8.73016,-21.0097 -19.65513,-24.63364 -0.69989,-0.232162 -1.29045,-0.346688 -1.79627,-0.338997 z"
           id="path16032" />
        <path
           style="fill:#6bc4cc;fill-opacity:1;stroke-width:0.560939"
           d="m 199.53252,98.998092 c -2.80435,-0.06298 -9.77261,3.762098 -13.2364,7.388698 -2.03042,2.12584 -0.18751,5.34336 2.50786,4.37854 0.38874,-0.13915 0.61388,-0.31396 1.62367,-1.26194 2.75607,-2.58739 5.7103,-4.30408 9.43354,-5.48132 2.65434,-0.83927 2.77427,-4.25452 0.17415,-4.958349 -0.14768,-0.03997 -0.31586,-0.06143 -0.50282,-0.06563 z"
           id="path16034" />
        <path
           style="fill:#6bc4cc;fill-opacity:1;stroke-width:0.560939"
           d="m 199.18422,98.933496 c 2.47801,-0.03035 3.96738,2.528954 2.05259,4.434874 -0.48672,0.48447 -0.57864,0.53107 -1.86758,0.94413 -3.32702,1.0662 -6.41265,2.92515 -9.06302,5.46013 -1.19384,1.14187 -1.84199,1.41199 -2.89336,1.20613 -1.91949,-0.37582 -2.78681,-2.62967 -1.62109,-4.21318 1.93588,-2.62971 7.75413,-6.25582 12.27677,-7.651216 0.38732,-0.1195 0.76169,-0.176532 1.11569,-0.180868 z"
           id="path16036" />
        <path
           style="fill:#6bc4cc;fill-opacity:1;stroke-width:0.560939"
           d="m 161.52658,98.875102 c 0.43234,-0.0062 0.91935,0.07783 1.47536,0.24908 10.19318,3.139528 17.93514,11.975488 19.75796,22.549528 0.40219,2.33302 0.37481,1.21416 0.41858,17.23202 0.0285,10.41724 0.0608,14.77202 0.11266,15.17789 1.24558,9.75123 7.36967,17.15268 16.61139,20.07681 3.43493,1.08683 2.36606,5.98864 -1.13843,5.22087 -9.84284,-2.15639 -18.85704,-12.31015 -20.54965,-23.14743 -0.32789,-2.09937 -0.30777,-1.11873 -0.3514,-16.85375 -0.0436,-15.73282 -0.0256,-14.87015 -0.3514,-16.7907 -1.45919,-8.60149 -8.03166,-16.01743 -16.34371,-18.44074 -2.13624,-0.62281 -2.86799,-2.93236 -1.41955,-4.480862 0.48815,-0.521868 1.0576,-0.782363 1.77819,-0.792716 z"
           id="path16038" />
      </g>
    </g>
  </g>
</svg>
